<svg width="48" height="48" viewBox="0 0 48 48" fill="none" xmlns="http://www.w3.org/2000/svg">
<path fill-rule="evenodd" clip-rule="evenodd" d="M31 22H16C14.3431 22 13 23.3431 13 25V32.3654C13 34.0223 14.3431 35.3654 16 35.3654H16.5299C17.9712 35.3654 19.2344 36.1277 19.9385 37.2711L20.6366 36.5611C21.3886 35.7962 22.4163 35.3654 23.4889 35.3654H31C32.6569 35.3654 34 34.0223 34 32.3654V25C34 23.3431 32.6569 22 31 22ZM22.7758 38.6643C22.9638 38.4731 23.2208 38.3654 23.4889 38.3654H31C34.3137 38.3654 37 35.6791 37 32.3654V25C37 21.6863 34.3137 19 31 19H16C12.6863 19 10 21.6863 10 25V32.3654C10 35.6791 12.6863 38.3654 16 38.3654H16.5299C17.0822 38.3654 17.5299 38.8131 17.5299 39.3654V41.5565C17.5299 42.4515 18.6155 42.8958 19.243 42.2576L22.7758 38.6643Z" fill="#1B344B"/>
<path fill-rule="evenodd" clip-rule="evenodd" d="M31 14H17C9.26801 14 3 20.268 3 28V31C3 38.732 9.26801 45 17 45H31C38.732 45 45 38.732 45 31V28C45 20.268 38.732 14 31 14ZM17 11C7.61116 11 0 18.6112 0 28V31C0 40.3888 7.61116 48 17 48H31C40.3888 48 48 40.3888 48 31V28C48 18.6112 40.3888 11 31 11H17Z" fill="#1B344B"/>
<path d="M31 28.5C31 29.3284 30.3284 30 29.5 30C28.6716 30 28 29.3284 28 28.5C28 27.6716 28.6716 27 29.5 27C30.3284 27 31 27.6716 31 28.5Z" fill="#1B344B"/>
<path d="M25 28.5C25 29.3284 24.3284 30 23.5 30C22.6716 30 22 29.3284 22 28.5C22 27.6716 22.6716 27 23.5 27C24.3284 27 25 27.6716 25 28.5Z" fill="#1B344B"/>
<path d="M19 28.5C19 29.3284 18.3284 30 17.5 30C16.6716 30 16 29.3284 16 28.5C16 27.6716 16.6716 27 17.5 27C18.3284 27 19 27.6716 19 28.5Z" fill="#1B344B"/>
<path fill-rule="evenodd" clip-rule="evenodd" d="M40.0607 4.93934C40.6464 5.52513 40.6464 6.47487 40.0607 7.06066L33.5607 13.5607C32.9749 14.1464 32.0251 14.1464 31.4393 13.5607C30.8536 12.9749 30.8536 12.0251 31.4393 11.4393L37.9393 4.93934C38.5251 4.35355 39.4749 4.35355 40.0607 4.93934Z" fill="#1B344B"/>
<path fill-rule="evenodd" clip-rule="evenodd" d="M41 5C41.5523 5 42 4.55228 42 4C42 3.44772 41.5523 3 41 3C40.4477 3 40 3.44772 40 4C40 4.55228 40.4477 5 41 5ZM41 8C43.2091 8 45 6.20914 45 4C45 1.79086 43.2091 0 41 0C38.7909 0 37 1.79086 37 4C37 6.20914 38.7909 8 41 8Z" fill="#1B344B"/>
<path fill-rule="evenodd" clip-rule="evenodd" d="M8.43934 4.93934C7.85355 5.52513 7.85355 6.47487 8.43934 7.06066L14.9393 13.5607C15.5251 14.1464 16.4749 14.1464 17.0607 13.5607C17.6464 12.9749 17.6464 12.0251 17.0607 11.4393L10.5607 4.93934C9.97487 4.35355 9.02513 4.35355 8.43934 4.93934Z" fill="#1B344B"/>
<path fill-rule="evenodd" clip-rule="evenodd" d="M7.5 5C6.94772 5 6.5 4.55228 6.5 4C6.5 3.44772 6.94772 3 7.5 3C8.05228 3 8.5 3.44772 8.5 4C8.5 4.55228 8.05228 5 7.5 5ZM7.5 8C5.29086 8 3.5 6.20914 3.5 4C3.5 1.79086 5.29086 0 7.5 0C9.70914 0 11.5 1.79086 11.5 4C11.5 6.20914 9.70914 8 7.5 8Z" fill="#1B344B"/>
</svg>
